<svg width="24" height="23" viewBox="0 0 24 23" fill="none" xmlns="http://www.w3.org/2000/svg">
<path d="M11.5223 5.60361C10.3555 5.60361 9.215 5.94958 8.2449 6.59778C7.2748 7.24599 6.51869 8.1673 6.0722 9.24522C5.62571 10.3231 5.50889 11.5093 5.73651 12.6536C5.96413 13.7979 6.52596 14.849 7.35097 15.674C8.17597 16.499 9.22709 17.0608 10.3714 17.2885C11.5157 17.5161 12.7018 17.3993 13.7798 16.9528C14.8577 16.5063 15.779 15.7502 16.4272 14.7801C17.0754 13.81 17.4214 12.6694 17.4214 11.5027C17.4228 10.7276 17.2712 9.95989 16.9752 9.24353C16.6793 8.52718 16.2448 7.87629 15.6967 7.32823C15.1487 6.78016 14.4978 6.34569 13.7814 6.04974C13.0651 5.75379 12.2973 5.60218 11.5223 5.60361ZM11.5223 15.336C10.7633 15.3366 10.0213 15.112 9.39005 14.6907C8.7588 14.2694 8.26671 13.6703 7.97603 12.9692C7.68535 12.2682 7.60916 11.4967 7.75708 10.7523C7.90501 10.0079 8.27042 9.32415 8.80706 8.78751C9.34371 8.25086 10.0275 7.88546 10.7718 7.73753C11.5162 7.5896 12.2877 7.6658 12.9888 7.95648C13.6899 8.24715 14.2889 8.73925 14.7102 9.3705C15.1315 10.0017 15.3561 10.7438 15.3556 11.5027C15.3542 12.5189 14.9498 13.4931 14.2313 14.2117C13.5127 14.9303 12.5385 15.3346 11.5223 15.336ZM19.029 5.36233C19.0295 5.63574 18.9486 5.90311 18.7966 6.13039C18.6446 6.35768 18.4284 6.53457 18.1756 6.63856C17.9227 6.74254 17.6446 6.76891 17.3767 6.71429C17.1088 6.65968 16.8632 6.52656 16.6712 6.33189C16.4793 6.13722 16.3496 5.88981 16.2987 5.62117C16.2478 5.35254 16.278 5.07484 16.3855 4.82344C16.493 4.57204 16.6729 4.35833 16.9023 4.20952C17.1316 4.06072 17.4001 3.98355 17.6735 3.98786C18.0349 3.99214 18.3801 4.13893 18.6339 4.39631C18.8877 4.65368 19.0297 5.00085 19.029 5.36233ZM22.9355 6.75849C22.8488 4.91502 22.4258 3.283 21.0758 1.93835C19.7257 0.593706 18.1072 0.173503 16.2665 0.0813296C14.3688 -0.0271099 8.67573 -0.0271099 6.77804 0.0813296C4.93186 0.168081 3.30527 0.588284 1.94977 1.93293C0.594282 3.27758 0.184923 4.91502 0.0900385 6.75306C-0.0156899 8.65075 -0.0156899 14.3438 0.0900385 16.2415C0.179501 18.085 0.599704 19.717 1.94977 21.0616C3.29985 22.4063 4.93186 22.8265 6.76991 22.9187C8.6676 23.0271 14.3607 23.0271 16.2584 22.9187C18.0991 22.8319 19.7311 22.4117 21.0758 21.0616C22.4204 19.7116 22.8433 18.0796 22.9355 16.2415C23.044 14.3438 23.044 8.65075 22.9355 6.75306V6.75849ZM20.4821 18.2829C20.2867 18.7776 19.9917 19.2269 19.6153 19.6028C19.2389 19.9787 18.7893 20.2732 18.2943 20.4679C16.7816 21.0698 13.1868 20.9315 11.5168 20.9315C9.84687 20.9315 6.24668 21.0644 4.73938 20.4679C4.24439 20.2732 3.79475 19.9787 3.41839 19.6028C3.04203 19.2269 2.74699 18.7776 2.55161 18.2829C1.95249 16.7674 2.09075 13.1754 2.09075 11.5054C2.09075 9.83545 1.95791 6.23256 2.55161 4.72796C2.74699 4.23322 3.04203 3.78394 3.41839 3.40805C3.79475 3.03215 4.24439 2.73767 4.73938 2.5429C6.25482 1.94107 9.84687 2.07933 11.5168 2.07933C13.1868 2.07933 16.7897 1.94649 18.2943 2.5429C18.7893 2.73767 19.2389 3.03215 19.6153 3.40805C19.9917 3.78394 20.2867 4.23322 20.4821 4.72796C21.0812 6.2434 20.9429 9.83545 20.9429 11.5054C20.9429 13.1754 21.0893 16.7729 20.4902 18.2829H20.4821Z" fill="white"/>
</svg>
