<svg xmlns="http://www.w3.org/2000/svg" viewBox="0 0 100 100"><path fill="black" d="M94.75,64.64A8.78,8.78,0,0,1,99,68.74a9,9,0,0,1,.78,5.86L95.53,93.16a8.55,8.55,0,0,1-3.13,4.89,8.3,8.3,0,0,1-5.47,2q-24.23-.19-43.76-11.92A85.61,85.61,0,0,1,11.92,56.83Q.19,37.3,0,13.07A8.3,8.3,0,0,1,2,7.6,8.52,8.52,0,0,1,6.84,4.47L25.4.18A9,9,0,0,1,31.26,1a8.78,8.78,0,0,1,4.1,4.29L44,25.18a8.91,8.91,0,0,1-2.54,10.35L33.6,42A59.6,59.6,0,0,0,58,66.4l6.45-7.81a8.91,8.91,0,0,1,10.35-2.54ZM89.47,91.8l4.3-18.56a2.8,2.8,0,0,0-1.56-2.93l-19.93-8.6a2.51,2.51,0,0,0-2.93.78l-8.21,10a2.92,2.92,0,0,1-3.71.78,63.82,63.82,0,0,1-17.77-12.9,63.82,63.82,0,0,1-12.9-17.77,2.94,2.94,0,0,1,.78-3.72l10-8.2a2.51,2.51,0,0,0,.78-2.93L29.69,7.79a2.5,2.5,0,0,0-2.34-1.56h-.59L8.2,10.53a2.74,2.74,0,0,0-1.95,2.54A79.72,79.72,0,0,0,17.19,53.7,84.15,84.15,0,0,0,46.3,82.81,79.72,79.72,0,0,0,86.93,93.75,2.74,2.74,0,0,0,89.47,91.8Z"/></svg>