<svg width="27" height="23" viewBox="0 0 27 23" fill="none" xmlns="http://www.w3.org/2000/svg">
<path d="M2.44138 0H6.50395L5.53803 8.74701C5.51264 9.0837 5.41826 9.41157 5.26078 9.71024C5.1033 10.0089 4.88608 10.272 4.62261 10.4832C4.2129 10.8255 3.71405 11.0438 3.1846 11.1125C2.65516 11.1813 2.11709 11.0975 1.63356 10.8712C1.15003 10.6448 0.741101 10.2852 0.454778 9.83463C0.168455 9.38401 0.016621 8.86107 0.0170909 8.32718V8.17882L2.44138 0ZM1.72483 12.2666C1.8847 12.3401 2.05728 12.3819 2.23304 12.3898C2.43822 12.4055 2.64971 12.415 2.86436 12.415C3.56796 12.4115 4.26017 12.2371 4.88144 11.9068C5.51727 11.5849 6.03374 11.0685 6.3556 10.4326L6.58919 10.6694C6.68055 10.7663 6.75235 10.8799 6.80068 11.004C7.21528 11.4335 7.70674 11.7815 8.24958 12.0299C8.80384 12.2855 9.40691 12.418 10.0173 12.4182C10.7219 12.415 11.4153 12.2406 12.0375 11.9099C12.6765 11.5848 13.1992 11.0699 13.5338 10.4358C13.8673 11.0503 14.3644 11.5605 14.97 11.9099C15.5581 12.2463 16.2244 12.4216 16.9019 12.4182C17.5215 12.4226 18.1346 12.2912 18.698 12.0331C19.2408 11.7846 19.7323 11.4367 20.1469 11.0072C20.21 10.9409 20.2826 10.8651 20.3552 10.783C20.4473 10.6768 20.5267 10.5603 20.592 10.4358C20.9144 11.0532 21.4075 11.5649 22.0125 11.9099C22.6087 12.2488 23.2838 12.4241 23.9696 12.4182C24.1811 12.4182 24.3736 12.4182 24.5378 12.3929C24.7238 12.3724 24.907 12.3311 25.0838 12.2698V22.008C25.0874 22.1382 25.065 22.2678 25.0178 22.3892C24.9707 22.5106 24.8998 22.6214 24.8092 22.7151C24.7164 22.81 24.6046 22.8844 24.4812 22.9333C24.3577 22.9823 24.2254 23.0047 24.0927 22.9992H2.70337C2.5725 23.0018 2.44246 22.9779 2.32104 22.929C2.19962 22.8801 2.08933 22.8072 1.99677 22.7146C1.90422 22.622 1.83129 22.5117 1.7824 22.3903C1.7335 22.2689 1.70962 22.1389 1.7122 22.008L1.72483 12.2666ZM7.92759 0H12.6815V8.18197C12.6866 8.5531 12.6156 8.92133 12.4728 9.26392C12.33 9.60652 12.1185 9.91619 11.8513 10.1738C11.5976 10.4403 11.2919 10.6519 10.953 10.7952C10.6142 10.9386 10.2495 11.0107 9.88155 11.0072C9.48178 11.013 9.08549 10.9323 8.71991 10.7704C8.34903 10.5959 8.02457 10.3364 7.77292 10.0128C7.47768 9.78109 7.25794 9.46686 7.1416 9.11002C7.00061 8.72477 6.92899 8.31758 6.93009 7.90735L7.92759 0ZM14.1209 8.18197V0H18.9L19.8881 7.89156C19.9568 8.28175 19.9231 8.68311 19.7902 9.05636C19.6376 9.45092 19.4246 9.81938 19.1589 10.1486C18.8898 10.432 18.5763 10.6697 18.2308 10.8525C17.8689 11.046 17.4638 11.1448 17.0534 11.1397C16.6625 11.1497 16.2737 11.0789 15.9114 10.9317C15.5491 10.7845 15.2211 10.5641 14.9479 10.2843C14.6771 10.0066 14.4644 9.67756 14.3224 9.31655C14.1803 8.95554 14.1118 8.56981 14.1209 8.18197ZM22.1387 19.0345C22.0059 19.4007 21.7634 19.717 21.4443 19.9404C21.1054 20.181 20.6981 20.306 20.2826 20.2971C20.0274 20.3036 19.7736 20.2576 19.5369 20.1621C19.3001 20.0665 19.0855 19.9234 18.9063 19.7415C18.7235 19.5579 18.5799 19.3389 18.4844 19.0979C18.3889 18.857 18.3434 18.5991 18.3508 18.34C18.3421 18.0774 18.3868 17.8158 18.4823 17.5711C18.5778 17.3264 18.7221 17.1036 18.9063 16.9164C19.0854 16.7341 19.2999 16.5905 19.5366 16.4944C19.7733 16.3983 20.0272 16.3517 20.2826 16.3576C20.5477 16.3526 20.8117 16.3942 21.0623 16.4807C21.3104 16.582 21.5342 16.7348 21.7189 16.929H21.9904L22.9815 15.9378V15.6632C22.636 15.3673 22.2475 15.1257 21.8294 14.9466C21.3957 14.7607 20.9281 14.6672 20.4562 14.672C19.7306 14.6678 19.0202 14.8803 18.416 15.2822C17.8117 15.6841 17.3412 16.2572 17.0646 16.928C16.7879 17.5989 16.7178 18.3371 16.8632 19.0481C17.0085 19.759 17.3627 20.4105 17.8804 20.919C18.2127 21.2667 18.6126 21.5427 19.0556 21.73C19.4986 21.9173 19.9753 22.0119 20.4562 22.008C20.9271 22.0163 21.3943 21.9233 21.8261 21.7354C22.258 21.5475 22.6445 21.2691 22.9594 20.919C23.6223 20.2252 23.9871 19.2994 23.9759 18.34V17.7718L23.8275 17.6234H20.4562L20.2826 17.7718V19.0345H22.1387ZM20.1595 0H24.2442L26.7948 8.17882V8.32718C26.804 8.68817 26.7345 9.04684 26.5911 9.37827C26.4478 9.7097 26.234 10.0059 25.9646 10.2464C25.4241 10.7478 24.7098 11.0195 23.9727 11.004C23.6532 11.0327 23.3313 10.9932 23.0282 10.8881C22.7251 10.7831 22.4478 10.615 22.2145 10.3948C21.7008 9.98588 21.3622 9.39668 21.2675 8.74701L20.1595 0Z" fill="black"/>
</svg>
