<svg width="24" height="23" viewBox="0 0 24 23" fill="none" xmlns="http://www.w3.org/2000/svg">
<path d="M20.5325 3.73727e-05H2.46477C1.81107 3.73727e-05 1.18415 0.259717 0.721913 0.721951C0.25968 1.18418 0 1.81111 0 2.4648L0 20.5352C0 21.1889 0.25968 21.8159 0.721913 22.2781C1.18415 22.7403 1.81107 23 2.46477 23H9.50075V15.1822H6.27593V11.5014H9.50075V8.69458C9.50075 5.50504 11.4009 3.74333 14.3108 3.74333C15.2656 3.75655 16.2182 3.83911 17.1611 3.99035V7.12289H15.5622C13.9824 7.12289 13.4884 8.10282 13.4884 9.1099V11.5014H17.0172L16.4553 15.1822H13.4884V23H20.5461C21.1998 23 21.8267 22.7403 22.2889 22.2781C22.7511 21.8159 23.0108 21.1889 23.0108 20.5352V2.4648C23.0108 2.13998 22.9466 1.81836 22.8219 1.51843C22.6972 1.21851 22.5144 0.946187 22.2841 0.717134C22.0538 0.488082 21.7805 0.306812 21.4799 0.183747C21.1793 0.0606816 20.8573 -0.0017513 20.5325 3.73727e-05Z" fill="white"/>
</svg>
