<svg width="174" height="134" viewBox="0 0 174 134" fill="none" xmlns="http://www.w3.org/2000/svg">
<path d="M0.379974 79.5528H14.8V82.8328H4.39998V90.0528H12.51V93.3328H4.39998V104.053H0.399979L0.379974 79.5528ZM18.53 79.5528H22.53V104.053H18.53V79.5528ZM47.97 79.5528V104.083H43.97L31.88 85.7828V104.083H27.88V79.5528H31.88L43.97 97.8028V79.5528H47.97ZM66.78 82.8228H57.27V90.0128H65.73V93.2928H57.27V100.803H66.78V104.083H53.25V79.5528H66.78V82.8228ZM95.65 99.0728H85.39L83.63 104.073H79.43L88.21 79.5528H92.86L101.64 104.083H97.41L95.65 99.0728ZM90.54 84.4128L86.54 95.7928H94.54L90.54 84.4128ZM105.41 79.5528H109.41V95.1728C109.41 98.9728 111.56 100.773 114.94 100.773C118.32 100.773 120.51 98.9728 120.51 95.1728V79.5528H124.51V95.0928C124.51 101.333 120 104.293 114.88 104.293C109.76 104.293 105.37 101.293 105.37 95.0928L105.41 79.5528ZM128.49 79.5528H145.59V82.8328H139.05V104.053H135.05V82.8628H128.49V79.5528ZM160.81 104.293C158.331 104.297 155.907 103.566 153.844 102.192C151.781 100.818 150.172 98.8627 149.22 96.5741C148.269 94.2854 148.017 91.7659 148.498 89.3343C148.978 86.9027 150.169 84.6682 151.919 82.9134C153.67 81.1587 155.902 79.9625 158.332 79.4763C160.762 78.9901 163.283 79.2356 165.573 80.1819C167.864 81.1281 169.823 82.7325 171.202 84.7922C172.581 86.8519 173.318 89.2742 173.32 91.7529C173.362 93.41 173.068 95.0585 172.455 96.5987C171.842 98.139 170.923 99.5389 169.754 100.714C168.584 101.889 167.189 102.814 165.652 103.435C164.114 104.055 162.467 104.357 160.81 104.323V104.293ZM160.81 100.813C165.67 100.813 169.2 97.2829 169.2 91.7529C169.2 86.2229 165.67 82.7528 160.81 82.7528C155.95 82.7528 152.42 86.2029 152.42 91.7529C152.42 97.3029 155.95 100.843 160.81 100.843V100.813ZM21.81 121.013C21.81 128.083 16.91 132.953 9.28998 132.953H0.339966V109.093H9.28998C16.95 109.093 21.85 113.923 21.85 121.043L21.81 121.013ZM8.90997 127.913C13.3 127.913 15.91 125.403 15.91 121.013C15.91 116.623 13.32 114.013 8.90997 114.013H6.15997V127.893L8.90997 127.913ZM39.7 113.723H30.89V118.553H38.68V123.043H30.89V128.283H39.7V132.943H25.11V109.093H39.74L39.7 113.723ZM42.19 109.063H60.66V113.723H54.33V132.953H48.52V113.753H42.19V109.063ZM78.46 128.733H69.54L68.11 132.953H62.05L70.7 109.063H77.43L86.05 132.983H79.89L78.46 128.733ZM74.05 115.553L71.12 124.303H77.05L74.05 115.553ZM88.71 109.123H94.53V133.013H88.71V109.123ZM104.57 109.123V128.523H112.19V133.013H98.74V109.093L104.57 109.123ZM114.98 109.123H120.8V133.013H114.98V109.123ZM146.38 109.123V133.013H140.57L130.83 118.283V133.013H125.05V109.093H130.86L140.6 123.893V109.093L146.38 109.123ZM172.89 116.683H166.45C165.975 115.875 165.282 115.217 164.451 114.784C163.62 114.351 162.684 114.16 161.75 114.233C158.01 114.233 155.53 116.883 155.53 121.033C155.53 125.463 158.04 128.033 162.23 128.033C163.53 128.094 164.812 127.708 165.863 126.941C166.914 126.173 167.672 125.07 168.01 123.813H160.63V119.553H173.29V124.973C172.532 127.411 170.999 129.534 168.923 131.02C166.847 132.506 164.342 133.272 161.79 133.203C154.64 133.203 149.61 128.203 149.61 121.053C149.61 113.903 154.61 108.873 161.75 108.873C167.47 108.823 171.62 111.753 172.88 116.653L172.89 116.683ZM78.23 19.1228H73.29L71.21 30.9228H78.44C82.5 30.9228 85.74 29.3028 86.55 24.7228C87.41 19.7528 81.91 19.0928 78.22 19.0928L78.23 19.1228ZM154.53 5.32285C165.44 5.32285 171.22 9.43285 173.34 15.3228V0.792847H0.379974V41.1928C0.619702 39.6875 0.936785 38.1955 1.32997 36.7228H16.82C15.82 42.2628 14.82 48.2328 19.37 48.2328C22.03 48.2328 24.19 46.0228 24.94 41.7428L31.11 6.69284H48.53L42.79 39.3128C40.32 53.3128 32.29 61.2228 18.2 61.2228C7.85997 61.2228 1.89997 57.3428 0.379974 49.9328V65.7628H168.91V70.1828H0.379974V74.7828H173.33V22.1128H157.76C157.826 21.3953 157.685 20.674 157.353 20.0342C157.022 19.3944 156.514 18.863 155.89 18.5028C154.556 17.7942 153.059 17.4493 151.55 17.5028C147.72 17.5028 145.82 18.6028 145.49 20.5028C144.08 28.5028 175.49 23.5028 172.1 42.8628C169.93 55.1828 158.62 61.1628 144.01 61.1628C130.01 61.1628 122.28 52.9728 123.6 43.3828H140.28C140.251 44.207 140.432 45.0249 140.807 45.7597C141.181 46.4944 141.736 47.1218 142.42 47.5828C143.821 48.4889 145.462 48.9524 147.13 48.9128C151.48 48.9128 154.61 47.5128 155.05 45.0028C156.46 37.0028 124.94 42.4928 128.51 22.2028C130.5 10.9728 141.24 5.29285 154.52 5.29285L154.53 5.32285ZM103.15 24.6228C101.15 36.0628 93.08 43.2928 77.8 43.2928H69.05L66.14 59.8228H48.7L58.05 6.69284H83.65C98.93 6.69284 105.05 13.7028 103.15 24.6228ZM121.67 18.3528C120.46 27.3528 112.75 33.3528 105.53 33.3528L106.53 27.3528C108.377 27.161 110.106 26.3545 111.44 25.0628C112.646 23.6906 113.431 21.9997 113.7 20.1928H107.79L110.17 6.69284H123.67L121.67 18.3528Z" fill="black"/>
</svg>
