<svg id="logo" width="186" height="146" viewBox="0 0 186 146" fill="white" xmlns="http://www.w3.org/2000/svg">
<path d="M115.23 6L179.31 66.32V76.1H111.64V140H104.14V76.22H81.14V140H69.99L5.99 79.63V69.84L67.64 69.76H73.64V6H81.14V69.73H104.14V6H115.26M111.64 69.73H172.15L161.15 59.36L121.73 22.25L111.64 12.72V69.72M73.64 133.22V76.22H13.1L24.1 86.59L63.48 123.7L73.64 133.23M117.64 0H98.14V63.73H87.14V0H67.64V63.76L0 63.85V82.22L67.64 146H87.14V82.22H98.14V146H117.64V82.1H185.34V63.73L117.64 0ZM117.64 63.73V26.62L157.03 63.73H117.64ZM67.64 119.33L28.22 82.22H67.64V119.33Z"/>
</svg>
